<?xml version="1.0" encoding="utf-8" standalone="no"?>
<!DOCTYPE svg PUBLIC "-//W3C//DTD SVG 1.1//EN"
  "http://www.w3.org/Graphics/SVG/1.1/DTD/svg11.dtd">
<!-- Created with matplotlib (https://matplotlib.org/) -->
<svg height="248.518125pt" version="1.1" viewBox="0 0 375.2875 248.518125" width="375.2875pt" xmlns="http://www.w3.org/2000/svg" xmlns:xlink="http://www.w3.org/1999/xlink">
 <metadata>
  <rdf:RDF xmlns:cc="http://creativecommons.org/ns#" xmlns:dc="http://purl.org/dc/elements/1.1/" xmlns:rdf="http://www.w3.org/1999/02/22-rdf-syntax-ns#">
   <cc:Work>
    <dc:type rdf:resource="http://purl.org/dc/dcmitype/StillImage"/>
    <dc:date>2021-01-24T17:44:34.975171</dc:date>
    <dc:format>image/svg+xml</dc:format>
    <dc:creator>
     <cc:Agent>
      <dc:title>Matplotlib v3.3.3, https://matplotlib.org/</dc:title>
     </cc:Agent>
    </dc:creator>
   </cc:Work>
  </rdf:RDF>
 </metadata>
 <defs>
  <style type="text/css">*{stroke-linecap:butt;stroke-linejoin:round;}</style>
 </defs>
 <g id="figure_1">
  <g id="patch_1">
   <path d="M 0 248.518125 
L 375.2875 248.518125 
L 375.2875 0 
L 0 0 
z
" style="fill:none;"/>
  </g>
  <g id="axes_1">
   <g id="patch_2">
    <path d="M 33.2875 224.64 
L 368.0875 224.64 
L 368.0875 7.2 
L 33.2875 7.2 
z
" style="fill:#ffffff;"/>
   </g>
   <g id="patch_3">
    <path clip-path="url(#p521af400e6)" d="M 48.505682 224.64 
L 63.723864 224.64 
L 63.723864 221.594622 
L 48.505682 221.594622 
z
" style="fill:#0072b2;"/>
   </g>
   <g id="patch_4">
    <path clip-path="url(#p521af400e6)" d="M 63.723864 224.64 
L 78.942045 224.64 
L 78.942045 218.549244 
L 63.723864 218.549244 
z
" style="fill:#0072b2;"/>
   </g>
   <g id="patch_5">
    <path clip-path="url(#p521af400e6)" d="M 78.942045 224.64 
L 94.160227 224.64 
L 94.160227 223.117311 
L 78.942045 223.117311 
z
" style="fill:#0072b2;"/>
   </g>
   <g id="patch_6">
    <path clip-path="url(#p521af400e6)" d="M 94.160227 224.64 
L 109.378409 224.64 
L 109.378409 213.981176 
L 94.160227 213.981176 
z
" style="fill:#0072b2;"/>
   </g>
   <g id="patch_7">
    <path clip-path="url(#p521af400e6)" d="M 109.378409 224.64 
L 124.596591 224.64 
L 124.596591 200.276975 
L 109.378409 200.276975 
z
" style="fill:#0072b2;"/>
   </g>
   <g id="patch_8">
    <path clip-path="url(#p521af400e6)" d="M 124.596591 224.64 
L 139.814773 224.64 
L 139.814773 175.91395 
L 124.596591 175.91395 
z
" style="fill:#0072b2;"/>
   </g>
   <g id="patch_9">
    <path clip-path="url(#p521af400e6)" d="M 139.814773 224.64 
L 155.032955 224.64 
L 155.032955 154.596303 
L 139.814773 154.596303 
z
" style="fill:#0072b2;"/>
   </g>
   <g id="patch_10">
    <path clip-path="url(#p521af400e6)" d="M 155.032955 224.64 
L 170.251136 224.64 
L 170.251136 86.075294 
L 155.032955 86.075294 
z
" style="fill:#0072b2;"/>
   </g>
   <g id="patch_11">
    <path clip-path="url(#p521af400e6)" d="M 170.251136 224.64 
L 185.469318 224.64 
L 185.469318 64.757647 
L 170.251136 64.757647 
z
" style="fill:#0072b2;"/>
   </g>
   <g id="patch_12">
    <path clip-path="url(#p521af400e6)" d="M 185.469318 224.64 
L 200.6875 224.64 
L 200.6875 32.781176 
L 185.469318 32.781176 
z
" style="fill:#0072b2;"/>
   </g>
   <g id="patch_13">
    <path clip-path="url(#p521af400e6)" d="M 200.6875 224.64 
L 215.905682 224.64 
L 215.905682 17.554286 
L 200.6875 17.554286 
z
" style="fill:#0072b2;"/>
   </g>
   <g id="patch_14">
    <path clip-path="url(#p521af400e6)" d="M 215.905682 224.64 
L 231.123864 224.64 
L 231.123864 22.122353 
L 215.905682 22.122353 
z
" style="fill:#0072b2;"/>
   </g>
   <g id="patch_15">
    <path clip-path="url(#p521af400e6)" d="M 231.123864 224.64 
L 246.342045 224.64 
L 246.342045 54.098824 
L 231.123864 54.098824 
z
" style="fill:#0072b2;"/>
   </g>
   <g id="patch_16">
    <path clip-path="url(#p521af400e6)" d="M 246.342045 224.64 
L 261.560227 224.64 
L 261.560227 107.392941 
L 246.342045 107.392941 
z
" style="fill:#0072b2;"/>
   </g>
   <g id="patch_17">
    <path clip-path="url(#p521af400e6)" d="M 261.560227 224.64 
L 276.778409 224.64 
L 276.778409 154.596303 
L 261.560227 154.596303 
z
" style="fill:#0072b2;"/>
   </g>
   <g id="patch_18">
    <path clip-path="url(#p521af400e6)" d="M 276.778409 224.64 
L 291.996591 224.64 
L 291.996591 178.959328 
L 276.778409 178.959328 
z
" style="fill:#0072b2;"/>
   </g>
   <g id="patch_19">
    <path clip-path="url(#p521af400e6)" d="M 291.996591 224.64 
L 307.214773 224.64 
L 307.214773 197.231597 
L 291.996591 197.231597 
z
" style="fill:#0072b2;"/>
   </g>
   <g id="patch_20">
    <path clip-path="url(#p521af400e6)" d="M 307.214773 224.64 
L 322.432955 224.64 
L 322.432955 213.981176 
L 307.214773 213.981176 
z
" style="fill:#0072b2;"/>
   </g>
   <g id="patch_21">
    <path clip-path="url(#p521af400e6)" d="M 322.432955 224.64 
L 337.651136 224.64 
L 337.651136 212.458487 
L 322.432955 212.458487 
z
" style="fill:#0072b2;"/>
   </g>
   <g id="patch_22">
    <path clip-path="url(#p521af400e6)" d="M 337.651136 224.64 
L 352.869318 224.64 
L 352.869318 220.071933 
L 337.651136 220.071933 
z
" style="fill:#0072b2;"/>
   </g>
   <g id="matplotlib.axis_1">
    <g id="xtick_1">
     <g id="line2d_1">
      <defs>
       <path d="M 0 0 
L 0 3.5 
" id="m2080e0a58d" style="stroke:#000000;stroke-width:0.8;"/>
      </defs>
      <g>
       <use style="stroke:#000000;stroke-width:0.8;" x="68.404244" xlink:href="#m2080e0a58d" y="224.64"/>
      </g>
     </g>
     <g id="text_1">
      <!-- −3 -->
      <g transform="translate(61.033151 239.238437)scale(0.1 -0.1)">
       <defs>
        <path d="M 10.59375 35.5 
L 73.1875 35.5 
L 73.1875 27.203125 
L 10.59375 27.203125 
z
" id="DejaVuSans-8722"/>
        <path d="M 40.578125 39.3125 
Q 47.65625 37.796875 51.625 33 
Q 55.609375 28.21875 55.609375 21.1875 
Q 55.609375 10.40625 48.1875 4.484375 
Q 40.765625 -1.421875 27.09375 -1.421875 
Q 22.515625 -1.421875 17.65625 -0.515625 
Q 12.796875 0.390625 7.625 2.203125 
L 7.625 11.71875 
Q 11.71875 9.328125 16.59375 8.109375 
Q 21.484375 6.890625 26.8125 6.890625 
Q 36.078125 6.890625 40.9375 10.546875 
Q 45.796875 14.203125 45.796875 21.1875 
Q 45.796875 27.640625 41.28125 31.265625 
Q 36.765625 34.90625 28.71875 34.90625 
L 20.21875 34.90625 
L 20.21875 43.015625 
L 29.109375 43.015625 
Q 36.375 43.015625 40.234375 45.921875 
Q 44.09375 48.828125 44.09375 54.296875 
Q 44.09375 59.90625 40.109375 62.90625 
Q 36.140625 65.921875 28.71875 65.921875 
Q 24.65625 65.921875 20.015625 65.03125 
Q 15.375 64.15625 9.8125 62.3125 
L 9.8125 71.09375 
Q 15.4375 72.65625 20.34375 73.4375 
Q 25.25 74.21875 29.59375 74.21875 
Q 40.828125 74.21875 47.359375 69.109375 
Q 53.90625 64.015625 53.90625 55.328125 
Q 53.90625 49.265625 50.4375 45.09375 
Q 46.96875 40.921875 40.578125 39.3125 
z
" id="DejaVuSans-51"/>
       </defs>
       <use xlink:href="#DejaVuSans-8722"/>
       <use x="83.789062" xlink:href="#DejaVuSans-51"/>
      </g>
     </g>
    </g>
    <g id="xtick_2">
     <g id="line2d_2">
      <g>
       <use style="stroke:#000000;stroke-width:0.8;" x="114.938332" xlink:href="#m2080e0a58d" y="224.64"/>
      </g>
     </g>
     <g id="text_2">
      <!-- −2 -->
      <g transform="translate(107.567238 239.238437)scale(0.1 -0.1)">
       <defs>
        <path d="M 19.1875 8.296875 
L 53.609375 8.296875 
L 53.609375 0 
L 7.328125 0 
L 7.328125 8.296875 
Q 12.9375 14.109375 22.625 23.890625 
Q 32.328125 33.6875 34.8125 36.53125 
Q 39.546875 41.84375 41.421875 45.53125 
Q 43.3125 49.21875 43.3125 52.78125 
Q 43.3125 58.59375 39.234375 62.25 
Q 35.15625 65.921875 28.609375 65.921875 
Q 23.96875 65.921875 18.8125 64.3125 
Q 13.671875 62.703125 7.8125 59.421875 
L 7.8125 69.390625 
Q 13.765625 71.78125 18.9375 73 
Q 24.125 74.21875 28.421875 74.21875 
Q 39.75 74.21875 46.484375 68.546875 
Q 53.21875 62.890625 53.21875 53.421875 
Q 53.21875 48.921875 51.53125 44.890625 
Q 49.859375 40.875 45.40625 35.40625 
Q 44.1875 33.984375 37.640625 27.21875 
Q 31.109375 20.453125 19.1875 8.296875 
z
" id="DejaVuSans-50"/>
       </defs>
       <use xlink:href="#DejaVuSans-8722"/>
       <use x="83.789062" xlink:href="#DejaVuSans-50"/>
      </g>
     </g>
    </g>
    <g id="xtick_3">
     <g id="line2d_3">
      <g>
       <use style="stroke:#000000;stroke-width:0.8;" x="161.47242" xlink:href="#m2080e0a58d" y="224.64"/>
      </g>
     </g>
     <g id="text_3">
      <!-- −1 -->
      <g transform="translate(154.101326 239.238437)scale(0.1 -0.1)">
       <defs>
        <path d="M 12.40625 8.296875 
L 28.515625 8.296875 
L 28.515625 63.921875 
L 10.984375 60.40625 
L 10.984375 69.390625 
L 28.421875 72.90625 
L 38.28125 72.90625 
L 38.28125 8.296875 
L 54.390625 8.296875 
L 54.390625 0 
L 12.40625 0 
z
" id="DejaVuSans-49"/>
       </defs>
       <use xlink:href="#DejaVuSans-8722"/>
       <use x="83.789062" xlink:href="#DejaVuSans-49"/>
      </g>
     </g>
    </g>
    <g id="xtick_4">
     <g id="line2d_4">
      <g>
       <use style="stroke:#000000;stroke-width:0.8;" x="208.006507" xlink:href="#m2080e0a58d" y="224.64"/>
      </g>
     </g>
     <g id="text_4">
      <!-- 0 -->
      <g transform="translate(204.825257 239.238437)scale(0.1 -0.1)">
       <defs>
        <path d="M 31.78125 66.40625 
Q 24.171875 66.40625 20.328125 58.90625 
Q 16.5 51.421875 16.5 36.375 
Q 16.5 21.390625 20.328125 13.890625 
Q 24.171875 6.390625 31.78125 6.390625 
Q 39.453125 6.390625 43.28125 13.890625 
Q 47.125 21.390625 47.125 36.375 
Q 47.125 51.421875 43.28125 58.90625 
Q 39.453125 66.40625 31.78125 66.40625 
z
M 31.78125 74.21875 
Q 44.046875 74.21875 50.515625 64.515625 
Q 56.984375 54.828125 56.984375 36.375 
Q 56.984375 17.96875 50.515625 8.265625 
Q 44.046875 -1.421875 31.78125 -1.421875 
Q 19.53125 -1.421875 13.0625 8.265625 
Q 6.59375 17.96875 6.59375 36.375 
Q 6.59375 54.828125 13.0625 64.515625 
Q 19.53125 74.21875 31.78125 74.21875 
z
" id="DejaVuSans-48"/>
       </defs>
       <use xlink:href="#DejaVuSans-48"/>
      </g>
     </g>
    </g>
    <g id="xtick_5">
     <g id="line2d_5">
      <g>
       <use style="stroke:#000000;stroke-width:0.8;" x="254.540595" xlink:href="#m2080e0a58d" y="224.64"/>
      </g>
     </g>
     <g id="text_5">
      <!-- 1 -->
      <g transform="translate(251.359345 239.238437)scale(0.1 -0.1)">
       <use xlink:href="#DejaVuSans-49"/>
      </g>
     </g>
    </g>
    <g id="xtick_6">
     <g id="line2d_6">
      <g>
       <use style="stroke:#000000;stroke-width:0.8;" x="301.074683" xlink:href="#m2080e0a58d" y="224.64"/>
      </g>
     </g>
     <g id="text_6">
      <!-- 2 -->
      <g transform="translate(297.893433 239.238437)scale(0.1 -0.1)">
       <use xlink:href="#DejaVuSans-50"/>
      </g>
     </g>
    </g>
    <g id="xtick_7">
     <g id="line2d_7">
      <g>
       <use style="stroke:#000000;stroke-width:0.8;" x="347.60877" xlink:href="#m2080e0a58d" y="224.64"/>
      </g>
     </g>
     <g id="text_7">
      <!-- 3 -->
      <g transform="translate(344.42752 239.238437)scale(0.1 -0.1)">
       <use xlink:href="#DejaVuSans-51"/>
      </g>
     </g>
    </g>
   </g>
   <g id="matplotlib.axis_2">
    <g id="ytick_1">
     <g id="line2d_8">
      <defs>
       <path d="M 0 0 
L -3.5 0 
" id="m79336df6cc" style="stroke:#000000;stroke-width:0.8;"/>
      </defs>
      <g>
       <use style="stroke:#000000;stroke-width:0.8;" x="33.2875" xlink:href="#m79336df6cc" y="224.64"/>
      </g>
     </g>
     <g id="text_8">
      <!-- 0 -->
      <g transform="translate(19.925 228.439219)scale(0.1 -0.1)">
       <use xlink:href="#DejaVuSans-48"/>
      </g>
     </g>
    </g>
    <g id="ytick_2">
     <g id="line2d_9">
      <g>
       <use style="stroke:#000000;stroke-width:0.8;" x="33.2875" xlink:href="#m79336df6cc" y="194.186218"/>
      </g>
     </g>
     <g id="text_9">
      <!-- 20 -->
      <g transform="translate(13.5625 197.985437)scale(0.1 -0.1)">
       <use xlink:href="#DejaVuSans-50"/>
       <use x="63.623047" xlink:href="#DejaVuSans-48"/>
      </g>
     </g>
    </g>
    <g id="ytick_3">
     <g id="line2d_10">
      <g>
       <use style="stroke:#000000;stroke-width:0.8;" x="33.2875" xlink:href="#m79336df6cc" y="163.732437"/>
      </g>
     </g>
     <g id="text_10">
      <!-- 40 -->
      <g transform="translate(13.5625 167.531656)scale(0.1 -0.1)">
       <defs>
        <path d="M 37.796875 64.3125 
L 12.890625 25.390625 
L 37.796875 25.390625 
z
M 35.203125 72.90625 
L 47.609375 72.90625 
L 47.609375 25.390625 
L 58.015625 25.390625 
L 58.015625 17.1875 
L 47.609375 17.1875 
L 47.609375 0 
L 37.796875 0 
L 37.796875 17.1875 
L 4.890625 17.1875 
L 4.890625 26.703125 
z
" id="DejaVuSans-52"/>
       </defs>
       <use xlink:href="#DejaVuSans-52"/>
       <use x="63.623047" xlink:href="#DejaVuSans-48"/>
      </g>
     </g>
    </g>
    <g id="ytick_4">
     <g id="line2d_11">
      <g>
       <use style="stroke:#000000;stroke-width:0.8;" x="33.2875" xlink:href="#m79336df6cc" y="133.278655"/>
      </g>
     </g>
     <g id="text_11">
      <!-- 60 -->
      <g transform="translate(13.5625 137.077874)scale(0.1 -0.1)">
       <defs>
        <path d="M 33.015625 40.375 
Q 26.375 40.375 22.484375 35.828125 
Q 18.609375 31.296875 18.609375 23.390625 
Q 18.609375 15.53125 22.484375 10.953125 
Q 26.375 6.390625 33.015625 6.390625 
Q 39.65625 6.390625 43.53125 10.953125 
Q 47.40625 15.53125 47.40625 23.390625 
Q 47.40625 31.296875 43.53125 35.828125 
Q 39.65625 40.375 33.015625 40.375 
z
M 52.59375 71.296875 
L 52.59375 62.3125 
Q 48.875 64.0625 45.09375 64.984375 
Q 41.3125 65.921875 37.59375 65.921875 
Q 27.828125 65.921875 22.671875 59.328125 
Q 17.53125 52.734375 16.796875 39.40625 
Q 19.671875 43.65625 24.015625 45.921875 
Q 28.375 48.1875 33.59375 48.1875 
Q 44.578125 48.1875 50.953125 41.515625 
Q 57.328125 34.859375 57.328125 23.390625 
Q 57.328125 12.15625 50.6875 5.359375 
Q 44.046875 -1.421875 33.015625 -1.421875 
Q 20.359375 -1.421875 13.671875 8.265625 
Q 6.984375 17.96875 6.984375 36.375 
Q 6.984375 53.65625 15.1875 63.9375 
Q 23.390625 74.21875 37.203125 74.21875 
Q 40.921875 74.21875 44.703125 73.484375 
Q 48.484375 72.75 52.59375 71.296875 
z
" id="DejaVuSans-54"/>
       </defs>
       <use xlink:href="#DejaVuSans-54"/>
       <use x="63.623047" xlink:href="#DejaVuSans-48"/>
      </g>
     </g>
    </g>
    <g id="ytick_5">
     <g id="line2d_12">
      <g>
       <use style="stroke:#000000;stroke-width:0.8;" x="33.2875" xlink:href="#m79336df6cc" y="102.824874"/>
      </g>
     </g>
     <g id="text_12">
      <!-- 80 -->
      <g transform="translate(13.5625 106.624093)scale(0.1 -0.1)">
       <defs>
        <path d="M 31.78125 34.625 
Q 24.75 34.625 20.71875 30.859375 
Q 16.703125 27.09375 16.703125 20.515625 
Q 16.703125 13.921875 20.71875 10.15625 
Q 24.75 6.390625 31.78125 6.390625 
Q 38.8125 6.390625 42.859375 10.171875 
Q 46.921875 13.96875 46.921875 20.515625 
Q 46.921875 27.09375 42.890625 30.859375 
Q 38.875 34.625 31.78125 34.625 
z
M 21.921875 38.8125 
Q 15.578125 40.375 12.03125 44.71875 
Q 8.5 49.078125 8.5 55.328125 
Q 8.5 64.0625 14.71875 69.140625 
Q 20.953125 74.21875 31.78125 74.21875 
Q 42.671875 74.21875 48.875 69.140625 
Q 55.078125 64.0625 55.078125 55.328125 
Q 55.078125 49.078125 51.53125 44.71875 
Q 48 40.375 41.703125 38.8125 
Q 48.828125 37.15625 52.796875 32.3125 
Q 56.78125 27.484375 56.78125 20.515625 
Q 56.78125 9.90625 50.3125 4.234375 
Q 43.84375 -1.421875 31.78125 -1.421875 
Q 19.734375 -1.421875 13.25 4.234375 
Q 6.78125 9.90625 6.78125 20.515625 
Q 6.78125 27.484375 10.78125 32.3125 
Q 14.796875 37.15625 21.921875 38.8125 
z
M 18.3125 54.390625 
Q 18.3125 48.734375 21.84375 45.5625 
Q 25.390625 42.390625 31.78125 42.390625 
Q 38.140625 42.390625 41.71875 45.5625 
Q 45.3125 48.734375 45.3125 54.390625 
Q 45.3125 60.0625 41.71875 63.234375 
Q 38.140625 66.40625 31.78125 66.40625 
Q 25.390625 66.40625 21.84375 63.234375 
Q 18.3125 60.0625 18.3125 54.390625 
z
" id="DejaVuSans-56"/>
       </defs>
       <use xlink:href="#DejaVuSans-56"/>
       <use x="63.623047" xlink:href="#DejaVuSans-48"/>
      </g>
     </g>
    </g>
    <g id="ytick_6">
     <g id="line2d_13">
      <g>
       <use style="stroke:#000000;stroke-width:0.8;" x="33.2875" xlink:href="#m79336df6cc" y="72.371092"/>
      </g>
     </g>
     <g id="text_13">
      <!-- 100 -->
      <g transform="translate(7.2 76.170311)scale(0.1 -0.1)">
       <use xlink:href="#DejaVuSans-49"/>
       <use x="63.623047" xlink:href="#DejaVuSans-48"/>
       <use x="127.246094" xlink:href="#DejaVuSans-48"/>
      </g>
     </g>
    </g>
    <g id="ytick_7">
     <g id="line2d_14">
      <g>
       <use style="stroke:#000000;stroke-width:0.8;" x="33.2875" xlink:href="#m79336df6cc" y="41.917311"/>
      </g>
     </g>
     <g id="text_14">
      <!-- 120 -->
      <g transform="translate(7.2 45.71653)scale(0.1 -0.1)">
       <use xlink:href="#DejaVuSans-49"/>
       <use x="63.623047" xlink:href="#DejaVuSans-50"/>
       <use x="127.246094" xlink:href="#DejaVuSans-48"/>
      </g>
     </g>
    </g>
    <g id="ytick_8">
     <g id="line2d_15">
      <g>
       <use style="stroke:#000000;stroke-width:0.8;" x="33.2875" xlink:href="#m79336df6cc" y="11.463529"/>
      </g>
     </g>
     <g id="text_15">
      <!-- 140 -->
      <g transform="translate(7.2 15.262748)scale(0.1 -0.1)">
       <use xlink:href="#DejaVuSans-49"/>
       <use x="63.623047" xlink:href="#DejaVuSans-52"/>
       <use x="127.246094" xlink:href="#DejaVuSans-48"/>
      </g>
     </g>
    </g>
   </g>
   <g id="patch_23">
    <path d="M 33.2875 224.64 
L 33.2875 7.2 
" style="fill:none;stroke:#000000;stroke-linecap:square;stroke-linejoin:miter;stroke-width:0.8;"/>
   </g>
   <g id="patch_24">
    <path d="M 368.0875 224.64 
L 368.0875 7.2 
" style="fill:none;stroke:#000000;stroke-linecap:square;stroke-linejoin:miter;stroke-width:0.8;"/>
   </g>
   <g id="patch_25">
    <path d="M 33.2875 224.64 
L 368.0875 224.64 
" style="fill:none;stroke:#000000;stroke-linecap:square;stroke-linejoin:miter;stroke-width:0.8;"/>
   </g>
   <g id="patch_26">
    <path d="M 33.2875 7.2 
L 368.0875 7.2 
" style="fill:none;stroke:#000000;stroke-linecap:square;stroke-linejoin:miter;stroke-width:0.8;"/>
   </g>
  </g>
 </g>
 <defs>
  <clipPath id="p521af400e6">
   <rect height="217.44" width="334.8" x="33.2875" y="7.2"/>
  </clipPath>
 </defs>
</svg>
